<svg width="7" height="8" viewBox="0 0 7 8" fill="none" xmlns="http://www.w3.org/2000/svg">
<path d="M6.36318 3.60381C6.2612 4.3031 5.95524 4.89879 5.47082 5.39089C5.19036 5.64988 4.9354 5.93478 4.65494 6.19378C4.24701 6.63407 3.83907 7.10027 3.43113 7.54056C2.56426 6.63407 1.72289 5.85708 0.932515 5.00239C0.473586 4.4844 0.295113 3.811 0.320609 3.11171C0.346105 1.60953 1.49343 0.31454 2.92121 0.159142C4.52746 -0.0221565 5.90425 0.910234 6.31219 2.43832C6.41417 2.74911 6.36318 3.55201 6.36318 3.60381ZM3.35464 4.2254C3.89006 4.2254 4.34899 3.7851 4.34899 3.24121C4.34899 2.69732 3.89006 2.23112 3.38014 2.23112C2.87022 2.23112 2.38579 2.69731 2.38579 3.21531C2.38579 3.7592 2.81923 4.2254 3.35464 4.2254Z" fill="#FD2016"/>
</svg>
